<?xml version="1.0" encoding="UTF-8"?> <svg xmlns="http://www.w3.org/2000/svg" width="150" height="24" viewBox="0 0 150 24" fill="none"><mask id="mask0_2165_17253" style="mask-type:luminance" maskUnits="userSpaceOnUse" x="0" y="0" width="24" height="24"><path d="M24 0H0V24H24V0Z" fill="white"></path></mask><g mask="url(#mask0_2165_17253)"><path d="M12 24C18.6274 24 24 18.6274 24 12C24 5.37258 18.6274 0 12 0C5.37258 0 0 5.37258 0 12C0 18.6274 5.37258 24 12 24Z" fill="#FF492C"></path><path d="M17.1936 9.19213H15.144C15.1992 8.87053 15.3984 8.69053 15.8016 8.48653L16.1784 8.29453C16.8528 7.94893 17.2128 7.55773 17.2128 6.91933C17.2128 6.51853 17.0568 6.20173 16.7472 5.97373C16.4376 5.74573 16.0728 5.63293 15.6456 5.63293C15.3151 5.62904 14.9906 5.72162 14.712 5.89933C14.4312 6.07213 14.2224 6.29533 14.0928 6.57373L14.6856 7.16893C14.916 6.70333 15.2496 6.47533 15.6888 6.47533C16.0608 6.47533 16.2888 6.66733 16.2888 6.93373C16.2888 7.15693 16.1784 7.34173 15.7512 7.55773L15.5088 7.67533C14.9832 7.94173 14.6184 8.24653 14.4072 8.59213C14.196 8.93773 14.0928 9.37213 14.0928 9.89773V10.0417H17.1936V9.19213Z" fill="white"></path><path d="M16.9205 11.0215H13.5269L11.8301 13.9591H15.2237L16.9205 16.8991L18.6173 13.9591L16.9205 11.0215Z" fill="white"></path><path d="M12.1224 15.9186C9.96242 15.9186 8.20323 14.1594 8.20323 11.9994C8.20323 9.83938 9.96242 8.08018 12.1224 8.08018L13.464 5.27458C13.0222 5.18673 12.5729 5.14251 12.1224 5.14258C8.33524 5.14258 5.26562 8.21218 5.26562 11.9994C5.26562 15.7866 8.33524 18.8562 12.1224 18.8562C13.5738 18.8589 14.988 18.3981 16.1592 17.541L14.676 14.9682C13.9664 15.5811 13.0601 15.9185 12.1224 15.9186Z" fill="white"></path></g><path d="M44.5377 3.47911C44.1973 3.31686 43.802 3.31686 43.4618 3.47911C43.1675 3.61938 43.0053 3.86291 42.9236 3.99651C42.839 4.13463 42.7522 4.31057 42.6676 4.48205L40.8711 8.12146L36.8528 8.7088C36.6636 8.73641 36.4695 8.76474 36.3121 8.80259C36.1598 8.83922 35.8782 8.91843 35.6541 9.15496C35.3949 9.4286 35.2729 9.80461 35.3223 10.1783C35.365 10.5013 35.5465 10.7307 35.6483 10.8497C35.7536 10.9727 35.8941 11.1096 36.0311 11.243L38.9376 14.0739L38.2518 18.0725C38.2194 18.261 38.1862 18.4544 38.1734 18.6159C38.1611 18.7721 38.1491 19.0645 38.3047 19.3509C38.4846 19.6822 38.8045 19.9146 39.1753 19.9833C39.4958 20.0427 39.7702 19.941 39.9149 19.881C40.0645 19.8189 40.2382 19.7275 40.4075 19.6384L43.9997 17.7493L47.5919 19.6384C47.7613 19.7275 47.9349 19.8189 48.0845 19.881C48.2293 19.941 48.5036 20.0427 48.8241 19.9833C49.1948 19.9146 49.5148 19.6822 49.6947 19.3509C49.8503 19.0645 49.8383 18.7721 49.826 18.6159C49.8132 18.4544 49.78 18.261 49.7476 18.0725L49.0618 14.0739L51.9683 11.2429C52.1053 11.1096 52.2458 10.9727 52.3511 10.8497C52.4529 10.7307 52.6344 10.5013 52.6771 10.1783C52.7264 9.80461 52.6045 9.4286 52.3453 9.15496C52.1212 8.91843 51.8396 8.83922 51.6873 8.80259C51.5298 8.76474 51.3358 8.73641 51.1466 8.7088L47.1283 8.12146L45.3318 4.48212C45.2473 4.31062 45.1604 4.13463 45.0758 3.99651C44.994 3.86291 44.8318 3.61938 44.5377 3.47911Z" fill="#FF492C"></path><path d="M68.5377 3.47911C68.1973 3.31686 67.802 3.31686 67.4618 3.47911C67.1675 3.61938 67.0053 3.86291 66.9236 3.99651C66.839 4.13463 66.7522 4.31057 66.6676 4.48205L64.8711 8.12146L60.8528 8.7088C60.6636 8.73641 60.4695 8.76474 60.3121 8.80259C60.1598 8.83922 59.8782 8.91843 59.6541 9.15496C59.3949 9.4286 59.2729 9.80461 59.3223 10.1783C59.365 10.5013 59.5465 10.7307 59.6483 10.8497C59.7536 10.9727 59.8941 11.1096 60.0311 11.243L62.9376 14.0739L62.2518 18.0725C62.2194 18.261 62.1862 18.4544 62.1734 18.6159C62.1611 18.7721 62.1491 19.0645 62.3047 19.3509C62.4846 19.6822 62.8045 19.9146 63.1753 19.9833C63.4958 20.0427 63.7702 19.941 63.9149 19.881C64.0645 19.8189 64.2382 19.7275 64.4075 19.6384L67.9997 17.7493L71.5919 19.6384C71.7613 19.7275 71.9349 19.8189 72.0845 19.881C72.2293 19.941 72.5036 20.0427 72.8241 19.9833C73.1948 19.9146 73.5148 19.6822 73.6947 19.3509C73.8503 19.0645 73.8383 18.7721 73.826 18.6159C73.8132 18.4544 73.78 18.261 73.7476 18.0725L73.0618 14.0739L75.9683 11.2429C76.1053 11.1096 76.2458 10.9727 76.3511 10.8497C76.4529 10.7307 76.6344 10.5013 76.6771 10.1783C76.7264 9.80461 76.6045 9.4286 76.3453 9.15496C76.1212 8.91843 75.8396 8.83922 75.6873 8.80259C75.5298 8.76474 75.3358 8.73641 75.1466 8.7088L71.1283 8.12146L69.3318 4.48212C69.2473 4.31062 69.1604 4.13463 69.0758 3.99651C68.994 3.86291 68.8318 3.61938 68.5377 3.47911Z" fill="#FF492C"></path><path d="M92.5377 3.47911C92.1973 3.31686 91.802 3.31686 91.4618 3.47911C91.1675 3.61938 91.0053 3.86291 90.9236 3.99651C90.839 4.13463 90.7522 4.31057 90.6676 4.48205L88.8711 8.12146L84.8528 8.7088C84.6636 8.73641 84.4695 8.76474 84.3121 8.80259C84.1598 8.83922 83.8782 8.91843 83.6541 9.15496C83.3949 9.4286 83.2729 9.80461 83.3223 10.1783C83.365 10.5013 83.5465 10.7307 83.6483 10.8497C83.7536 10.9727 83.8941 11.1096 84.0311 11.243L86.9376 14.0739L86.2518 18.0725C86.2194 18.261 86.1862 18.4544 86.1734 18.6159C86.1611 18.7721 86.1491 19.0645 86.3047 19.3509C86.4846 19.6822 86.8045 19.9146 87.1753 19.9833C87.4958 20.0427 87.7702 19.941 87.9149 19.881C88.0645 19.8189 88.2382 19.7275 88.4075 19.6384L91.9997 17.7493L95.5919 19.6384C95.7613 19.7275 95.9349 19.8189 96.0845 19.881C96.2293 19.941 96.5036 20.0427 96.8241 19.9833C97.1948 19.9146 97.5148 19.6822 97.6947 19.3509C97.8503 19.0645 97.8383 18.7721 97.826 18.6159C97.8132 18.4544 97.78 18.261 97.7476 18.0725L97.0618 14.0739L99.9683 11.2429C100.105 11.1096 100.246 10.9727 100.351 10.8497C100.453 10.7307 100.634 10.5013 100.677 10.1783C100.726 9.80461 100.605 9.4286 100.345 9.15496C100.121 8.91843 99.8396 8.83922 99.6873 8.80259C99.5298 8.76474 99.3358 8.73641 99.1466 8.7088L95.1283 8.12146L93.3318 4.48212C93.2473 4.31062 93.1604 4.13463 93.0758 3.99651C92.994 3.86291 92.8318 3.61938 92.5377 3.47911Z" fill="#FF492C"></path><path d="M116.538 3.47911C116.197 3.31686 115.802 3.31686 115.462 3.47911C115.168 3.61938 115.005 3.86291 114.924 3.99651C114.839 4.13463 114.752 4.31057 114.668 4.48205L112.871 8.12146L108.853 8.7088C108.664 8.73641 108.47 8.76474 108.312 8.80259C108.16 8.83922 107.878 8.91843 107.654 9.15496C107.395 9.4286 107.273 9.80461 107.322 10.1783C107.365 10.5013 107.546 10.7307 107.648 10.8497C107.754 10.9727 107.894 11.1096 108.031 11.243L110.938 14.0739L110.252 18.0725C110.219 18.261 110.186 18.4544 110.173 18.6159C110.161 18.7721 110.149 19.0645 110.305 19.3509C110.485 19.6822 110.805 19.9146 111.175 19.9833C111.496 20.0427 111.77 19.941 111.915 19.881C112.064 19.8189 112.238 19.7275 112.407 19.6384L116 17.7493L119.592 19.6384C119.761 19.7275 119.935 19.8189 120.085 19.881C120.229 19.941 120.504 20.0427 120.824 19.9833C121.195 19.9146 121.515 19.6822 121.695 19.3509C121.85 19.0645 121.838 18.7721 121.826 18.6159C121.813 18.4544 121.78 18.261 121.748 18.0725L121.062 14.0739L123.968 11.2429C124.105 11.1096 124.246 10.9727 124.351 10.8497C124.453 10.7307 124.634 10.5013 124.677 10.1783C124.726 9.80461 124.605 9.4286 124.345 9.15496C124.121 8.91843 123.84 8.83922 123.687 8.80259C123.53 8.76474 123.336 8.73641 123.147 8.7088L119.128 8.12146L117.332 4.48212C117.247 4.31062 117.16 4.13463 117.076 3.99651C116.994 3.86291 116.832 3.61938 116.538 3.47911Z" fill="#FF492C"></path><path d="M140.538 3.47911C140.197 3.31686 139.802 3.31686 139.462 3.47911C139.168 3.61938 139.005 3.86291 138.924 3.99651C138.839 4.13463 138.752 4.31057 138.668 4.48205L136.871 8.12146L132.853 8.7088C132.664 8.73641 132.47 8.76474 132.312 8.80259C132.16 8.83922 131.878 8.91843 131.654 9.15496C131.395 9.4286 131.273 9.80461 131.322 10.1783C131.365 10.5013 131.546 10.7307 131.648 10.8497C131.754 10.9727 131.894 11.1096 132.031 11.243L134.938 14.0739L134.252 18.0725C134.219 18.261 134.186 18.4544 134.173 18.6159C134.161 18.7721 134.149 19.0645 134.305 19.3509C134.485 19.6822 134.805 19.9146 135.175 19.9833C135.496 20.0427 135.77 19.941 135.915 19.881C136.064 19.8189 136.238 19.7275 136.407 19.6384L140 17.7493L143.592 19.6384C143.761 19.7275 143.935 19.8189 144.085 19.881C144.229 19.941 144.504 20.0427 144.824 19.9833C145.195 19.9146 145.515 19.6822 145.695 19.3509C145.85 19.0645 145.838 18.7721 145.826 18.6159C145.813 18.4544 145.78 18.261 145.748 18.0725L145.062 14.0739L147.968 11.2429C148.105 11.1096 148.246 10.9727 148.351 10.8497C148.453 10.7307 148.634 10.5013 148.677 10.1783C148.726 9.80461 148.605 9.4286 148.345 9.15496C148.121 8.91843 147.84 8.83922 147.687 8.80259C147.53 8.76474 147.336 8.73641 147.147 8.7088L143.128 8.12146L141.332 4.48212C141.247 4.31062 141.16 4.13463 141.076 3.99651C140.994 3.86291 140.832 3.61938 140.538 3.47911Z" fill="#FF492C"></path></svg> 