<?xml version="1.0" encoding="UTF-8"?> <svg xmlns="http://www.w3.org/2000/svg" id="Layer_2" viewBox="0 0 42 42"><defs><style>.cls-1{fill:#222831;}.cls-2,.cls-3{stroke-miterlimit:10;}.cls-2,.cls-3,.cls-4{fill:none;stroke-linecap:round;stroke-width:1.42px;}.cls-2,.cls-4{stroke:#fff;}.cls-3{stroke:#ff8a00;}.cls-4{stroke-linejoin:round;}</style></defs><g id="Layer_1-2"><circle class="cls-1" cx="21" cy="21" r="21"></circle><polyline class="cls-3" points="28.89 20.57 31.53 23.34 36.52 18.66"></polyline><circle class="cls-4" cx="21.17" cy="21" r="2.64"></circle><path class="cls-3" d="M28.57,16.2c-1.99-1.7-4.58-2.73-7.4-2.73-4.94,0-9.14,3.14-10.74,7.53,1.6,4.39,5.8,7.53,10.74,7.53,1.26,0,2.47-.2,3.6-.58,1.34-.44,2.56-1.13,3.63-2"></path><path class="cls-2" d="M13.97,7.77h-2.72c-1.83,0-3.31,1.48-3.31,3.31v2.72"></path><path class="cls-2" d="M28.37,34.23h2.72c1.83,0,3.31-1.48,3.31-3.31v-2.72"></path><path class="cls-2" d="M7.95,28.2v2.72c0,1.83,1.48,3.31,3.31,3.31h2.72"></path><path class="cls-2" d="M34.4,13.8v-2.72c0-.76-.25-1.46-.68-2.01-.6-.79-1.55-1.29-2.62-1.29h-2.72"></path></g></svg> 