<svg xmlns="http://www.w3.org/2000/svg" xmlns:xlink="http://www.w3.org/1999/xlink" id="Layer_1" x="0px" y="0px" viewBox="0 0 44 44" style="enable-background:new 0 0 44 44;" xml:space="preserve"><style type="text/css">	.st0{fill:#222831;}	.st1{fill:#FAFAFA;}	.st2{fill:#FF9900;}	.st3{fill:#FFFFFF;}	.st4{fill:#888B90;}</style><g>	<g>		<circle class="st0" cx="22" cy="22" r="21"></circle>	</g>	<g>		<g>			<polygon class="st1" points="30.7,10.7 22.9,10.7 28.4,17.5    "></polygon>			<path class="st0" d="M28.4,17.9c-0.1,0-0.2-0.1-0.3-0.2L22.6,11c-0.1-0.1-0.1-0.3-0.1-0.4c0.1-0.1,0.2-0.2,0.4-0.2h7.8    c0.1,0,0.3,0.1,0.3,0.2c0.1,0.1,0.1,0.3,0.1,0.4l-2.3,6.8C28.7,17.8,28.6,17.9,28.4,17.9L28.4,17.9z M23.8,11.2l4.4,5.5l1.9-5.5    C30.1,11.2,23.8,11.2,23.8,11.2z"></path>		</g>		<g>			<polygon class="st1" points="16.9,18.2 27,18.2 22,11.9    "></polygon>			<path class="st0" d="M27,18.6H17c-0.2,0-0.3-0.1-0.4-0.2s0-0.3,0.1-0.4l5-6.2c0.2-0.2,0.5-0.2,0.7,0l5,6.2    c0.1,0.1,0.1,0.3,0.1,0.4C27.3,18.5,27.1,18.6,27,18.6z M17.8,17.8h8.3L22,12.7L17.8,17.8z"></path>		</g>		<g>			<polygon class="st1" points="14.3,18.2 12,11.4 6.5,18.2    "></polygon>			<path class="st0" d="M14.3,18.6H6.5c-0.2,0-0.3-0.1-0.4-0.2s0-0.3,0.1-0.4l5.5-6.8c0.1-0.1,0.2-0.2,0.4-0.1    c0.1,0,0.3,0.1,0.3,0.3l2.3,6.8c0,0.1,0,0.3-0.1,0.4C14.5,18.5,14.4,18.6,14.3,18.6z M7.4,17.8h6.3l-1.9-5.5L7.4,17.8z"></path>		</g>		<g>			<polygon class="st1" points="22,36.3 27.6,19.8 16.3,19.8    "></polygon>			<path class="st0" d="M22,36.7c-0.2,0-0.3-0.1-0.4-0.3L16,20c0-0.1,0-0.3,0.1-0.4c0.1-0.1,0.2-0.2,0.3-0.2h11.2    c0.1,0,0.3,0.1,0.3,0.2C28,19.7,28,19.9,28,20l-5.6,16.5C22.3,36.6,22.1,36.7,22,36.7z M16.9,20.3l5,14.8l5-14.8H16.9z"></path>		</g>		<g>			<polygon class="st2" points="15.6,17.5 21,10.7 13.2,10.7    "></polygon>			<path class="st0" d="M15.6,17.9C15.5,17.9,15.5,17.9,15.6,17.9c-0.2,0-0.3-0.1-0.4-0.3l-2.3-6.8c0-0.1,0-0.3,0.1-0.4    c0.1-0.1,0.2-0.2,0.3-0.2h7.8c0.2,0,0.3,0.1,0.4,0.2c0.1,0.1,0,0.3-0.1,0.4L16,17.6C15.8,17.9,15.7,17.9,15.6,17.9z M13.8,11.2    l1.9,5.5l4.4-5.5C20.1,11.2,13.8,11.2,13.8,11.2z"></path>		</g>		<g>			<polygon class="st1" points="29.6,18.2 37.4,18.2 32,11.4    "></polygon>			<path class="st0" d="M37.4,18.6h-7.8c-0.1,0-0.3-0.1-0.3-0.2c-0.1-0.1-0.1-0.2-0.1-0.4l2.3-6.8c0-0.1,0.2-0.2,0.3-0.3    c0.1,0,0.3,0,0.4,0.1l5.5,6.8c0.1,0.1,0.1,0.3,0.1,0.4C37.7,18.5,37.6,18.6,37.4,18.6z M30.2,17.8h6.3L32,12.3L30.2,17.8z"></path>		</g>		<g>			<polygon class="st2" points="29.1,19.8 23.2,37 37.4,19.8    "></polygon>			<path class="st0" d="M23.2,37.4c-0.1,0-0.1,0-0.2-0.1c-0.2-0.1-0.3-0.3-0.2-0.5l5.8-17.1c0.1-0.2,0.2-0.3,0.4-0.3h8.3    c0.2,0,0.3,0.1,0.4,0.2c0.1,0.1,0,0.3-0.1,0.4l-14,17.2C23.5,37.3,23.4,37.4,23.2,37.4z M29.4,20.3l-5,14.7l12.2-14.7H29.4z"></path>		</g>		<g>			<polygon class="st1" points="14.9,19.8 6.5,19.8 20.7,37    "></polygon>			<path class="st0" d="M20.7,37.4c-0.1,0-0.2-0.1-0.3-0.2L6.2,20.1c-0.1-0.1-0.1-0.3-0.1-0.4c0.1-0.1,0.2-0.2,0.4-0.2h8.3    c0.2,0,0.3,0.1,0.4,0.3L21,36.9C21.1,37.1,21,37.3,20.7,37.4C20.8,37.4,20.8,37.4,20.7,37.4z M7.4,20.3L19.6,35l-5-14.7H7.4z"></path>		</g>	</g></g></svg>