<?xml version="1.0" encoding="UTF-8"?> <svg xmlns="http://www.w3.org/2000/svg" id="Layer_2" viewBox="0 0 42 42"><defs><style>.cls-1,.cls-2{fill:#222831;}.cls-2{stroke:#f5891f;}.cls-2,.cls-3{stroke-linecap:round;}.cls-2,.cls-3,.cls-4{stroke-miterlimit:10;stroke-width:2px;}.cls-3,.cls-4{fill:none;stroke:#fff;}</style></defs><g id="Layer_1-2"><circle class="cls-1" cx="21" cy="21" r="21"></circle><path class="cls-4" d="M21,21v4h-1.63c-1.14,0-2.07.93-2.07,2.07s.93,2.07,2.07,2.07h1.63v3.98h8.74c1.87,0,3.38-1.52,3.38-3.38v-8.74"></path><path class="cls-3" d="M17,21v-1.63c0-1.14-.93-2.07-2.07-2.07s-2.07.93-2.07,2.07v1.63h-3.98v8.74c0,1.87,1.52,3.38,3.38,3.38h8.74v-3.98h-1.63c-1.14,0-2.07-.93-2.07-2.07s.93-2.07,2.07-2.07h1.63"></path><path class="cls-4" d="M19.99,8.88h-7.73c-1.87,0-3.38,1.52-3.38,3.38v8.74h3.98v-1.63c0-1.14.93-2.07,2.07-2.07s2.07.93,2.07,2.07v1.63h4"></path><path class="cls-2" d="M29.74,8.88h-8.74v3.98h1.63c1.14,0,2.07.93,2.07,2.07s-.93,2.07-2.07,2.07h-1.63v4h4v1.63c0,1.14.93,2.07,2.07,2.07s2.07-.93,2.07-2.07v-1.63h3.98v-8.74c0-1.87-1.52-3.38-3.38-3.38Z"></path></g></svg> 